<?xml version="1.0" standalone="no"?>
<!DOCTYPE svg PUBLIC "-//W3C//DTD SVG 20010904//EN"
 "http://www.w3.org/TR/2001/REC-SVG-20010904/DTD/svg10.dtd">
<svg version="1.0" xmlns="http://www.w3.org/2000/svg"
 width="206.000000pt" height="206.000000pt" viewBox="0 0 206.000000 206.000000"
 preserveAspectRatio="xMidYMid meet">
<metadata>
Created by potrace 1.14, written by Peter Selinger 2001-2017
</metadata>
<g transform="translate(0.000000,206.000000) scale(0.100000,-0.100000)"
fill="#000000" stroke="none">
<path d="M880 2008 c-36 -5 -118 -27 -182 -48 -102 -35 -128 -40 -207 -40
l-91 0 0 -63 0 -63 -56 -54 c-222 -218 -330 -515 -294 -815 25 -210 109 -396
252 -557 33 -37 90 -59 103 -38 7 11 35 2 35 -11 0 -5 -9 -9 -20 -9 -19 0 -20
-7 -20 -90 l0 -90 134 0 c147 0 187 9 261 60 39 27 108 104 117 131 2 6 17 10
33 9 30 0 55 0 78 0 21 1 80 -10 85 -15 3 -3 -4 -5 -16 -5 -21 0 -22 -4 -22
-90 l0 -90 295 0 295 0 0 90 c0 83 -1 90 -20 90 -11 0 -20 5 -20 11 0 7 11 8
31 4 46 -10 82 10 136 78 69 87 87 114 126 193 132 263 137 581 14 847 -49
107 -100 179 -189 273 l-78 81 0 62 0 61 -91 0 c-79 0 -105 5 -207 39 -171 58
-315 73 -482 49z m-236 -1676 c3 -5 -1 -9 -9 -9 -8 0 -12 4 -9 9 3 4 7 8 9 8
2 0 6 -4 9 -8z m693 -3 c8 -8 13 -8 17 0 5 7 13 8 25 2 10 -6 23 -6 32 0 20
13 29 11 29 -6 0 -12 -15 -15 -77 -14 -43 0 -72 3 -65 6 6 2 10 9 6 14 -7 13
20 11 33 -2z"/>
</g>
</svg>
