<?xml version="1.0" encoding="UTF-8" standalone="no" ?>
<!DOCTYPE svg PUBLIC "-//W3C//DTD SVG 1.1//EN" "http://www.w3.org/Graphics/SVG/1.1/DTD/svg11.dtd">
<svg xmlns="http://www.w3.org/2000/svg" xmlns:xlink="http://www.w3.org/1999/xlink" version="1.1" width="24" height="24" viewBox="0 0 500 500" xml:space="preserve">
<desc>Created with Fabric.js 4.6.0</desc>
<defs>
</defs>
<g transform="matrix(1.11 0 0 1.11 432.86 92.33)" id="dw8jxW4_HKo6sOO8Ae8An"  >
<path style="stroke: rgb(102,204,255); stroke-width: 1; stroke-dasharray: none; stroke-linecap: butt; stroke-dashoffset: 0; stroke-linejoin: miter; stroke-miterlimit: 4; fill: rgb(102,204,255); fill-rule: nonzero; opacity: 1;" vector-effect="non-scaling-stroke"  transform=" translate(0, 0)" d="M 0 0" stroke-linecap="round" />
</g>
<g transform="matrix(1.11 0 0 1.11 190.42 313.75)" id="aTo2IvFSNh_1zxwqp9V0Z"  >
<path style="stroke: rgb(102,204,255); stroke-width: 1; stroke-dasharray: none; stroke-linecap: butt; stroke-dashoffset: 0; stroke-linejoin: miter; stroke-miterlimit: 4; fill: rgb(102,204,255); fill-rule: nonzero; opacity: 1;" vector-effect="non-scaling-stroke"  transform=" translate(0, 0)" d="M 0 0" stroke-linecap="round" />
</g>
<g transform="matrix(1.11 0 0 1.11 145.28 421.26)" id="Ku9o3o9cuCMrQ-wapUXfu"  >
<path style="stroke: rgb(102,204,255); stroke-width: 1; stroke-dasharray: none; stroke-linecap: butt; stroke-dashoffset: 0; stroke-linejoin: miter; stroke-miterlimit: 4; fill: rgb(102,204,255); fill-rule: nonzero; opacity: 1;" vector-effect="non-scaling-stroke"  transform=" translate(0, 0)" d="M 0 0" stroke-linecap="round" />
</g>
<g transform="matrix(1.11 0 0 1.11 233.99 418.16)" id="1mxldDbAt-82zcAQpNyHE"  >
<path style="stroke: rgb(102,204,255); stroke-width: 1; stroke-dasharray: none; stroke-linecap: butt; stroke-dashoffset: 0; stroke-linejoin: miter; stroke-miterlimit: 4; fill: rgb(102,204,255); fill-rule: nonzero; opacity: 1;" vector-effect="non-scaling-stroke"  transform=" translate(0, 0)" d="M 0 0" stroke-linecap="round" />
</g>
<g transform="matrix(1.11 0 0 1.11 189.63 310.37)" id="0KAAg892ByUzvt3391d7W"  >
<path style="stroke: rgb(102,204,255); stroke-width: 1; stroke-dasharray: none; stroke-linecap: butt; stroke-dashoffset: 0; stroke-linejoin: miter; stroke-miterlimit: 4; fill: rgb(102,204,255); fill-rule: nonzero; opacity: 1;" vector-effect="non-scaling-stroke"  transform=" translate(0, 0)" d="M 0 0" stroke-linecap="round" />
</g>
<g transform="matrix(1.11 0 0 1.11 167.46 399.08)" id="JofNFCPkTD1w_hCFnW6FF"  >
<path style="stroke: rgb(102,204,255); stroke-width: 1; stroke-dasharray: none; stroke-linecap: butt; stroke-dashoffset: 0; stroke-linejoin: miter; stroke-miterlimit: 4; fill: rgb(102,204,255); fill-rule: nonzero; opacity: 1;" vector-effect="non-scaling-stroke"  transform=" translate(0, 0)" d="M 0 0" stroke-linecap="round" />
</g>
<g transform="matrix(1.11 0 0 1.11 145.28 376.9)" id="GAylcCv5LGYO4gp7n8w5A"  >
<path style="stroke: rgb(102,204,255); stroke-width: 1; stroke-dasharray: none; stroke-linecap: butt; stroke-dashoffset: 0; stroke-linejoin: miter; stroke-miterlimit: 4; fill: rgb(102,204,255); fill-rule: nonzero; opacity: 1;" vector-effect="non-scaling-stroke"  transform=" translate(0, 0)" d="M 0 0" stroke-linecap="round" />
</g>
<g transform="matrix(1.11 0 0 1.11 145.28 376.9)" id="RfNWCiwW5Gce2g9iXnwAH"  >
<path style="stroke: rgb(102,204,255); stroke-width: 1; stroke-dasharray: none; stroke-linecap: butt; stroke-dashoffset: 0; stroke-linejoin: miter; stroke-miterlimit: 4; fill: rgb(102,204,255); fill-rule: nonzero; opacity: 1;" vector-effect="non-scaling-stroke"  transform=" translate(0, 0)" d="M 0 0" stroke-linecap="round" />
</g>
<g transform="matrix(1.11 0 0 1.11 305.63 243.83)" id="QlybLM5m9lyjSP4mGR-cB"  >
<path style="stroke: rgb(102,204,255); stroke-width: 1; stroke-dasharray: none; stroke-linecap: butt; stroke-dashoffset: 0; stroke-linejoin: miter; stroke-miterlimit: 4; fill: rgb(102,204,255); fill-rule: nonzero; opacity: 1;" vector-effect="non-scaling-stroke"  transform=" translate(0, 0)" d="M 0 0" stroke-linecap="round" />
</g>
<g transform="matrix(1.09 0 0 1.09 100.32 399.75)" id="NZ4ld8zW7A8oaEUJOzAyl"  >
<filter id="SVGID_232" y="-25%" height="150%" x="-21%" width="142%" >
	<feGaussianBlur in="SourceAlpha" stdDeviation="0"></feGaussianBlur>
	<feOffset dx="2" dy="8" result="oBlur" ></feOffset>
	<feFlood flood-color="rgb(19,102,128)" flood-opacity="1"/>
	<feComposite in2="oBlur" operator="in" />
	<feMerge>
		<feMergeNode></feMergeNode>
		<feMergeNode in="SourceGraphic"></feMergeNode>
	</feMerge>
</filter>
<path style="stroke: rgb(102,204,255); stroke-width: 1; stroke-dasharray: none; stroke-linecap: butt; stroke-dashoffset: 0; stroke-linejoin: miter; stroke-miterlimit: 4; fill: rgb(102,204,255); fill-rule: nonzero; opacity: 1;filter: url(#SVGID_232);" vector-effect="non-scaling-stroke"  transform=" translate(0, 0)" d="M 80 80 L -20 20 L -80 -80 L -80 80 z" stroke-linecap="round" />
</g>
<g transform="matrix(1.11 0 0 1.11 189.63 310.37)" id="8kHMhK_EzUrpWZKzdud96"  >
<path style="stroke: rgb(102,204,255); stroke-width: 1; stroke-dasharray: none; stroke-linecap: butt; stroke-dashoffset: 0; stroke-linejoin: miter; stroke-miterlimit: 4; fill: rgb(102,204,255); fill-rule: nonzero; opacity: 1;" vector-effect="non-scaling-stroke"  transform=" translate(0, 0)" d="M 0 0" stroke-linecap="round" />
</g>
<g transform="matrix(1.11 0 0 1.11 322.71 221.65)" id="nr8NUuUjM0H7Eo-7BnlEI"  >
<path style="stroke: rgb(102,204,255); stroke-width: 1; stroke-dasharray: none; stroke-linecap: butt; stroke-dashoffset: 0; stroke-linejoin: miter; stroke-miterlimit: 4; fill: rgb(102,204,255); fill-rule: nonzero; opacity: 1;" vector-effect="non-scaling-stroke"  transform=" translate(0, 0)" d="M 0 0" stroke-linecap="round" />
</g>
<g transform="matrix(1.11 0 0 1.11 278.35 221.65)" id="4DcSZ6jvvK3nCZkJzFAnV"  >
<path style="stroke: rgb(102,204,255); stroke-width: 1; stroke-dasharray: none; stroke-linecap: butt; stroke-dashoffset: 0; stroke-linejoin: miter; stroke-miterlimit: 4; fill: rgb(102,204,255); fill-rule: nonzero; opacity: 1;" vector-effect="non-scaling-stroke"  transform=" translate(0, 0)" d="M 0 0" stroke-linecap="round" />
</g>
<g transform="matrix(3.6 -3.6 0.53 0.53 277.72 221.02)" id="keZ3DPZkp2a2X5VsiPCKW"  >
<filter id="SVGID_247" y="-28%" height="156%" x="-27%" width="154%" >
	<feGaussianBlur in="SourceAlpha" stdDeviation="0"></feGaussianBlur>
	<feOffset dx="-5.66" dy="7.07" result="oBlur" ></feOffset>
	<feFlood flood-color="rgb(19,102,128)" flood-opacity="1"/>
	<feComposite in2="oBlur" operator="in" />
	<feMerge>
		<feMergeNode></feMergeNode>
		<feMergeNode in="SourceGraphic"></feMergeNode>
	</feMerge>
</filter>
<path style="stroke: rgb(102,204,255); stroke-width: 0; stroke-dasharray: none; stroke-linecap: butt; stroke-dashoffset: 0; stroke-linejoin: miter; stroke-miterlimit: 4; fill: rgb(102,204,255); fill-rule: nonzero; opacity: 1;filter: url(#SVGID_247);" vector-effect="non-scaling-stroke"  transform=" translate(0, 0)" d="M -43.10345 -43.10345 L 43.10345 -43.10345 L 43.10345 43.10345 L -43.10345 43.10345 z" stroke-linecap="round" />
</g>
<g transform="matrix(1.11 0 0 1.11 389.24 288.19)" id="QIAj8WNT8S3QmhGyoJQkd"  >
<path style="stroke: rgb(102,204,255); stroke-width: 1; stroke-dasharray: none; stroke-linecap: butt; stroke-dashoffset: 0; stroke-linejoin: miter; stroke-miterlimit: 4; fill: rgb(102,204,255); fill-rule: nonzero; opacity: 1;" vector-effect="non-scaling-stroke"  transform=" translate(0, 0)" d="M 0 0" stroke-linecap="round" />
</g>
<g transform="matrix(1.11 0 0 1.11 199.43 256.74)" id="8sjsb50THkMndSGU8sl47"  >
<path style="stroke: rgb(102,204,255); stroke-width: 1; stroke-dasharray: none; stroke-linecap: round; stroke-dashoffset: 0; stroke-linejoin: round; stroke-miterlimit: 10; fill: rgb(102,204,255); fill-rule: nonzero; opacity: 1;" vector-effect="non-scaling-stroke"  transform=" translate(-168.83, -271.65)" d="M 168.83016883116875 271.64502164502164 L 168.83216883116876 271.64502164502164" stroke-linecap="round" />
</g>
<g transform="matrix(1.11 0 0 1.11 352.4 231.88)" id="RRv1pg6F5MYCg83zzWVzW"  >
<path style="stroke: rgb(102,204,255); stroke-width: 1; stroke-dasharray: none; stroke-linecap: round; stroke-dashoffset: 0; stroke-linejoin: round; stroke-miterlimit: 10; fill: rgb(102,204,255); fill-rule: nonzero; opacity: 1;" vector-effect="non-scaling-stroke"  transform=" translate(-306.78, -249.22)" d="M 306.7749476296063 249.22227844305786 L 306.77694762960624 249.22227844305786" stroke-linecap="round" />
</g>
<g transform="matrix(1.11 0 0 1.11 155.86 343.67)" id="qXSV_RR1CTTWzoeZiPyeR"  >
<path style="stroke: rgb(102,204,255); stroke-width: 1; stroke-dasharray: none; stroke-linecap: round; stroke-dashoffset: 0; stroke-linejoin: round; stroke-miterlimit: 10; fill: rgb(102,204,255); fill-rule: nonzero; opacity: 1;" vector-effect="non-scaling-stroke"  transform=" translate(-129.54, -350.04)" d="M 129.5391752718826 350.03528657313916 L 129.54117527188262 350.03528657313916" stroke-linecap="round" />
</g>
<g transform="matrix(1.11 0 0 1.11 33.24 450.96)" id="B9MO54VKa7hHhva9Qwvc_"  >
<path style="stroke: rgb(102,204,255); stroke-width: 1; stroke-dasharray: none; stroke-linecap: round; stroke-dashoffset: 0; stroke-linejoin: round; stroke-miterlimit: 10; fill: rgb(102,204,255); fill-rule: nonzero; opacity: 1;" vector-effect="non-scaling-stroke"  transform=" translate(-18.97, -446.78)" d="M 18.97006958082571 446.78325405281396 L 18.972069580825714 446.78325405281396" stroke-linecap="round" />
</g>
<g transform="matrix(1.11 0 0 1.11 33.24 450.96)" id="1mS9f5xu7Dz9PKTF6-lxS"  >
<path style="stroke: rgb(102,204,255); stroke-width: 1; stroke-dasharray: none; stroke-linecap: round; stroke-dashoffset: 0; stroke-linejoin: round; stroke-miterlimit: 10; fill: rgb(102,204,255); fill-rule: nonzero; opacity: 1;" vector-effect="non-scaling-stroke"  transform=" translate(-18.97, -446.78)" d="M 18.97006958082571 446.78325405281396 L 18.972069580825714 446.78325405281396" stroke-linecap="round" />
</g>
<g transform="matrix(1.11 0 0 1.11 189.63 443.44)" id="8SHI1iO5JMJOrr-aoYw5x"  >
<path style="stroke: rgb(102,204,255); stroke-width: 1; stroke-dasharray: none; stroke-linecap: butt; stroke-dashoffset: 0; stroke-linejoin: miter; stroke-miterlimit: 4; fill: rgb(102,204,255); fill-rule: nonzero; opacity: 1;" vector-effect="non-scaling-stroke"  transform=" translate(0, 0)" d="M 0 0" stroke-linecap="round" />
</g>
<g transform="matrix(1.11 0 0 1.11 322.71 266.01)" id="Os9lmtN5ZGC1XuRE_i5ua"  >
<path style="stroke: rgb(102,204,255); stroke-width: 1; stroke-dasharray: none; stroke-linecap: butt; stroke-dashoffset: 0; stroke-linejoin: miter; stroke-miterlimit: 4; fill: rgb(102,204,255); fill-opacity: 0.5; fill-rule: nonzero; opacity: 1;" vector-effect="non-scaling-stroke"  transform=" translate(0, 0)" d="M -120 160 L 160 -120 L 120 -160 L -160 120 z" stroke-linecap="round" />
</g>
<g transform="matrix(1.11 0 0 1.11 233.99 177.29)" id="3WG_Vvj6YMfxYeyqiQAPL"  >
<path style="stroke: rgb(102,204,255); stroke-width: 1; stroke-dasharray: none; stroke-linecap: butt; stroke-dashoffset: 0; stroke-linejoin: miter; stroke-miterlimit: 4; fill: rgb(102,204,255); fill-opacity: 0.5; fill-rule: nonzero; opacity: 1;" vector-effect="non-scaling-stroke"  transform=" translate(0, 0)" d="M -160 120 L 120 -160 L 160 -120 L -120 160 z" stroke-linecap="round" />
</g>
<g transform="matrix(0.68 0 0 0.68 13.2 486.8)" id="O_lhdYvfsqXJpHOgazMvL"  >
<path style="stroke: rgb(102,204,255); stroke-width: 0; stroke-dasharray: none; stroke-linecap: butt; stroke-dashoffset: 0; stroke-linejoin: miter; stroke-miterlimit: 4; fill: rgb(102,204,255); fill-rule: nonzero; opacity: 1;" vector-effect="non-scaling-stroke"  transform=" translate(0, 0)" d="M 0 -16.38298 C 9.0434 -16.38298 16.38298 -9.04341 16.38298 0 C 16.38298 9.0434 9.04341 16.38298 0 16.38298 C -9.0434 16.38298 -16.38298 9.04341 -16.38298 0 C -16.38298 -9.0434 -9.04341 -16.38298 0 -16.38298 z" stroke-linecap="round" />
</g>
<g transform="matrix(1.11 0 0 1.11 100.71 492.29)" id="5gJD7d2Qb8gO_S5Cn5ZYA"  >
<path style="stroke: rgb(102,204,255); stroke-width: 1; stroke-dasharray: none; stroke-linecap: butt; stroke-dashoffset: 0; stroke-linejoin: miter; stroke-miterlimit: 4; fill: rgb(102,204,255); fill-rule: nonzero; opacity: 1;" vector-effect="non-scaling-stroke"  transform=" translate(0, 0)" d="M 80 -4.75829 L -80 4.758300000000001 L -80 -4.75829 L 80 -4.75829" stroke-linecap="round" />
</g>
<g transform="matrix(1.11 0 0 1.11 7.62 399.29)" id="gNtHltaHRJnHkXDjK1XT5"  >
<path style="stroke: rgb(102,204,255); stroke-width: 1; stroke-dasharray: none; stroke-linecap: butt; stroke-dashoffset: 0; stroke-linejoin: miter; stroke-miterlimit: 4; fill: rgb(102,204,255); fill-rule: nonzero; opacity: 1;" vector-effect="non-scaling-stroke"  transform=" translate(0, 0)" d="M 4.84358 -80 L -4.843570000000001 80 L 4.84358 80 z" stroke-linecap="round" />
</g>
</svg>