<?xml version="1.0" encoding="UTF-8"?>
<!DOCTYPE svg PUBLIC "-//W3C//DTD SVG 1.1//EN" "http://www.w3.org/Graphics/SVG/1.1/DTD/svg11.dtd">
<svg xmlns="http://www.w3.org/2000/svg" version="1.1" width="24px" height="24px" style="shape-rendering:geometricPrecision; text-rendering:geometricPrecision; image-rendering:optimizeQuality; fill-rule:evenodd; clip-rule:evenodd" xmlns:xlink="http://www.w3.org/1999/xlink">
<g><path style="opacity:0.963" fill="#71c4f4" d="M 7.5,-0.5 C 10.1667,-0.5 12.8333,-0.5 15.5,-0.5C 15.0923,5.39837 17.759,8.06504 23.5,7.5C 23.5,10.1667 23.5,12.8333 23.5,15.5C 20.8733,16.1049 18.2066,16.6049 15.5,17C 17.0599,19.1147 17.3932,21.2814 16.5,23.5C 13.5,23.5 10.5,23.5 7.5,23.5C 7.0874,21.1099 6.42073,18.7765 5.5,16.5C 3.58509,16.6837 1.58509,16.3503 -0.5,15.5C -0.5,12.8333 -0.5,10.1667 -0.5,7.5C 2.14659,6.92706 4.81326,6.26039 7.5,5.5C 6.18101,3.46837 6.18101,1.46837 7.5,-0.5 Z"/></g>
</svg>
