<?xml version="1.0" encoding="UTF-8"?>
<!DOCTYPE svg PUBLIC "-//W3C//DTD SVG 1.1//EN" "http://www.w3.org/Graphics/SVG/1.1/DTD/svg11.dtd">
<svg xmlns="http://www.w3.org/2000/svg" version="1.1" width="24px" height="24px" style="shape-rendering:geometricPrecision; text-rendering:geometricPrecision; image-rendering:optimizeQuality; fill-rule:evenodd; clip-rule:evenodd" xmlns:xlink="http://www.w3.org/1999/xlink">
<g><path style="opacity:0.915" fill="#3893c8" d="M 7.5,-0.5 C 10.1667,-0.5 12.8333,-0.5 15.5,-0.5C 15.5,2.16667 15.5,4.83333 15.5,7.5C 18.1667,7.5 20.8333,7.5 23.5,7.5C 23.5,10.1667 23.5,12.8333 23.5,15.5C 21.0054,15.9688 18.3387,15.9688 15.5,15.5C 16.2541,18.2556 16.2541,20.9223 15.5,23.5C 12.8333,23.5 10.1667,23.5 7.5,23.5C 7.5,20.8333 7.5,18.1667 7.5,15.5C 4.7444,16.2541 2.07773,16.2541 -0.5,15.5C -0.5,12.8333 -0.5,10.1667 -0.5,7.5C 2.16667,7.5 4.83333,7.5 7.5,7.5C 6.74592,4.7444 6.74592,2.07773 7.5,-0.5 Z"/></g>
</svg>
