<?xml version="1.0" encoding="UTF-8" standalone="no" ?>
<!DOCTYPE svg PUBLIC "-//W3C//DTD SVG 1.1//EN" "http://www.w3.org/Graphics/SVG/1.1/DTD/svg11.dtd">
<svg xmlns="http://www.w3.org/2000/svg" xmlns:xlink="http://www.w3.org/1999/xlink" version="1.1" width="24" height="24" viewBox="0 0 24 24" xml:space="preserve">
<desc>Created with Fabric.js 4.6.0</desc>
<defs>
</defs>
<g transform="matrix(1.51 0 0 1.73 10.51 12)" id="RwRQLmw3mmDkfCCBcKnjI"  >
<path style="stroke: rgb(162,107,100); stroke-width: 0; stroke-dasharray: none; stroke-linecap: butt; stroke-dashoffset: 0; stroke-linejoin: miter; stroke-miterlimit: 4; fill: rgb(51,153,204); fill-rule: nonzero; opacity: 1;" vector-effect="non-scaling-stroke"  transform=" translate(0, 0)" d="M -6.9378 -6.9378 L 6.937790000000001 -6.9378 L 6.937790000000001 6.937790000000001 L -6.9378 6.937790000000001 z" stroke-linecap="round" />
</g>
<g transform="matrix(1 0 0 1 21 3)" id="ReN9Fg65ghAUtebv3z17A"  >
<path style="stroke: rgb(0,0,0); stroke-width: 1; stroke-dasharray: none; stroke-linecap: butt; stroke-dashoffset: 0; stroke-linejoin: miter; stroke-miterlimit: 4; fill: rgb(255,255,255); fill-opacity: 0; fill-rule: nonzero; opacity: 1;" vector-effect="non-scaling-stroke"  transform=" translate(0, 0)" d="M 0 0" stroke-linecap="round" />
</g>
<g transform="matrix(1 0 0 1 22.5 13.5)" id="zq2ijnlF-7hATKIBEeeVc"  >
<path style="stroke: rgb(0,0,0); stroke-width: 0; stroke-dasharray: none; stroke-linecap: butt; stroke-dashoffset: 0; stroke-linejoin: miter; stroke-miterlimit: 4; fill: rgb(255,255,255); fill-opacity: 0; fill-rule: nonzero; opacity: 1;" vector-effect="non-scaling-stroke"  transform=" translate(0, 0)" d="M -1.5 -10.49969 C 1.4948700000000001 -10.540719999999999 1.5 -8.49969 1.5 -8.49969 L 1.5 10.50031 L -1.5 10.50031 L -1.5 -10.49969" stroke-linecap="round" />
</g>
<g transform="matrix(1.54 0 0 8.32 22 13.2)" id="N3aAdZ6R7ogLwMMfU3k6j"  >
<path style="stroke: rgb(0,0,0); stroke-width: 0; stroke-dasharray: none; stroke-linecap: butt; stroke-dashoffset: 0; stroke-linejoin: miter; stroke-miterlimit: 4; fill: rgb(51,153,204); fill-rule: nonzero; opacity: 1;" vector-effect="non-scaling-stroke"  transform=" translate(0, 0)" d="M -1.2987 -1.2987 L 1.2987 -1.2987 L 1.2987 1.2987 L -1.2987 1.2987 z" stroke-linecap="round" />
</g>
<g transform="matrix(4.39 0 0 1.46 11 3)" id="WDKAUKTScB4GO1K2lmahC"  >
<path style="stroke: rgb(0,0,0); stroke-width: 0; stroke-dasharray: none; stroke-linecap: butt; stroke-dashoffset: 0; stroke-linejoin: miter; stroke-miterlimit: 4; fill: rgb(2,113,167); fill-rule: nonzero; opacity: 1;" vector-effect="non-scaling-stroke"  transform=" translate(0, 0)" d="M -2.05128 -2.05128 L 2.05128 -2.05128 L 2.05128 2.05128 L -2.05128 2.05128 z" stroke-linecap="round" />
</g>
<g transform="matrix(2.68 0 0 1.46 14.5 3)" id="jFvCfC5AJWjRVYOr8gSkv"  >
<path style="stroke: rgb(0,0,0); stroke-width: 0; stroke-dasharray: none; stroke-linecap: butt; stroke-dashoffset: 0; stroke-linejoin: miter; stroke-miterlimit: 4; fill: rgb(187,202,211); fill-rule: nonzero; opacity: 1;" vector-effect="non-scaling-stroke"  transform=" translate(0, 0)" d="M -2.05128 -1.45622 C -2.05128 -1.7848700000000002 -1.9059600000000003 -2.05129 -1.7267000000000001 -2.05129 L 1.7266999999999997 -2.05129 L 1.7266999999999997 -2.05129 C 1.9059599999999997 -2.05129 2.0512799999999998 -1.7848699999999997 2.0512799999999998 -1.4562199999999998 L 2.0512799999999998 1.4562100000000002 L 2.0512799999999998 1.4562100000000002 C 2.0512799999999998 1.7848600000000001 1.9059599999999999 2.05128 1.7266999999999997 2.05128 L -1.7267000000000001 2.05128 L -1.7267000000000001 2.05128 C -1.90596 2.05128 -2.05128 1.7848600000000001 -2.05128 1.4562100000000002 z" stroke-linecap="round" />
</g>
<g transform="matrix(0.49 0 0 1 17 3)" id="uvWNn8pqyTNtUnpC0UrNy"  >
<path style="stroke: rgb(0,0,0); stroke-width: 0; stroke-dasharray: none; stroke-linecap: butt; stroke-dashoffset: 0; stroke-linejoin: miter; stroke-miterlimit: 4; fill: rgb(2,113,167); fill-rule: nonzero; opacity: 1;" vector-effect="non-scaling-stroke"  transform=" translate(0, 0)" d="M -2.05128 -1.181 C -2.05128 -1.66165 -1.2520200000000004 -2.05129 -0.2660800000000003 -2.05129 L 0.26607999999999965 -2.05129 L 0.26607999999999965 -2.05129 C 1.2520199999999997 -2.05129 2.0512799999999993 -1.6616499999999998 2.0512799999999993 -1.1809999999999998 L 2.0512799999999993 1.1809900000000002 L 2.0512799999999993 1.1809900000000002 C 2.0512799999999993 1.6616400000000002 1.2520199999999995 2.05128 0.26607999999999943 2.05128 L -0.26608000000000054 2.05128 L -0.26608000000000054 2.05128 C -1.2520200000000006 2.05128 -2.05128 1.6616400000000002 -2.05128 1.1809900000000002 z" stroke-linecap="round" />
</g>
<g transform="matrix(4.64 0 0 2.94 11.52 17.97)" id="uDdBtqnf16VAsHNx8A1UX"  >
<path style="stroke: rgb(0,0,0); stroke-width: 0; stroke-dasharray: none; stroke-linecap: butt; stroke-dashoffset: 0; stroke-linejoin: miter; stroke-miterlimit: 4; fill: rgb(187,202,211); fill-rule: nonzero; opacity: 1;" vector-effect="non-scaling-stroke"  transform=" translate(0, 0)" d="M -2.05128 -2.05128 L 2.05128 -2.05128 L 2.05128 2.05128 L -2.05128 2.05128 z" stroke-linecap="round" />
</g>
<g transform="matrix(1 0 0 1 3 11)" id="_clLbemIQBhJvNav4kySl"  >
<path style="stroke: rgb(0,0,0); stroke-width: 1; stroke-dasharray: none; stroke-linecap: butt; stroke-dashoffset: 0; stroke-linejoin: miter; stroke-miterlimit: 4; fill: rgb(255,255,255); fill-opacity: 0; fill-rule: nonzero; opacity: 1;" vector-effect="non-scaling-stroke"  transform=" translate(0, 0)" d="M 0 0" stroke-linecap="round" />
</g>
<g transform="matrix(1 0 0 1 11.5 17.5)" id="r31OeNxU44tHvzbADs4za"  >
<path style="stroke: rgb(0,0,0); stroke-width: 0; stroke-dasharray: none; stroke-linecap: butt; stroke-dashoffset: 0; stroke-linejoin: miter; stroke-miterlimit: 4; fill: rgb(51,153,204); fill-rule: nonzero; opacity: 1;" vector-effect="non-scaling-stroke"  transform=" translate(0, 0)" d="M -9.5 -4.5 C -9.5 -4.5 -9.66334 -5.52374 -8.5 -5.5 C -7.33666 -5.47626 8.5 -5.5 8.5 -5.5 C 8.5 -5.5 9.47626 -5.47341 9.5 -4.5 C 9.52374 -3.52659 9.5 6.5 9.5 6.5 L 10.5 6.5 L 10.5 -6.5 L -10.5 -6.5 L -10.5 6.5 L -9.5 6.5 z" stroke-linecap="round" />
</g>
<g transform="matrix(1 0 0 1 21.68 1.49)" id="Mbq0x3WpN7CVnOzk8qvBQ"  >
<path style="stroke: rgb(0,0,0); stroke-width: 0; stroke-dasharray: none; stroke-linecap: butt; stroke-dashoffset: 0; stroke-linejoin: miter; stroke-miterlimit: 4; fill: rgb(51,153,204); fill-rule: nonzero; opacity: 1;" vector-effect="non-scaling-stroke"  transform=" translate(0, 0)" d="M -0.67619 -1.49423 C 2.31082 -1.46826 2.32381 0.9213499999999999 2.32381 0.9213499999999999 L 2.32381 1.50577 L -1.67619 1.50577 L -1.67619 -1.49423 C -1.67619 -1.49423 -3.6632 -1.5202 -0.6761900000000001 -1.49423 z" stroke-linecap="round" />
</g>
</svg>