<?xml version="1.0" encoding="UTF-8"?>
<!DOCTYPE svg PUBLIC "-//W3C//DTD SVG 1.1//EN" "http://www.w3.org/Graphics/SVG/1.1/DTD/svg11.dtd">
<svg xmlns="http://www.w3.org/2000/svg" version="1.1" width="38" height="38" viewBox="0 0 1024 1024"   style="shape-rendering:geometricPrecision; text-rendering:geometricPrecision; image-rendering:optimizeQuality; fill-rule:evenodd; clip-rule:evenodd" xmlns:xlink="http://www.w3.org/1999/xlink">
<g><path style="opacity:0.987" fill="#03a8f4" d="M 480.5,7.5 C 493.171,7.33345 505.838,7.50012 518.5,8C 530.327,8.33269 540.16,12.8327 548,21.5C 549.562,23.9573 550.562,26.624 551,29.5C 551.811,43.1596 552.478,56.8262 553,70.5C 555.47,84.6304 562.97,95.1304 575.5,102C 597.514,113.67 620.847,118.003 645.5,115C 654.814,112.592 662.648,107.758 669,100.5C 675.667,88.5 682.333,76.5 689,64.5C 694.128,57.0184 701.295,53.3517 710.5,53.5C 733.061,57.7814 753.394,66.948 771.5,81C 776.034,85.1994 780.201,89.6994 784,94.5C 787.516,103.622 787.182,112.622 783,121.5C 775.693,132.446 769.693,144.113 765,156.5C 762.656,170.456 765.656,183.123 774,194.5C 785.965,210.72 800.798,223.553 818.5,233C 830.034,238.454 841.7,238.788 853.5,234C 865.872,226.148 878.538,218.814 891.5,212C 900.284,210.192 908.284,211.858 915.5,217C 932.652,233.46 945.152,252.96 953,275.5C 957.063,287.963 954.23,298.463 944.5,307C 934.5,313 924.5,319 914.5,325C 901.806,334.391 895.806,347.058 896.5,363C 897.492,386.31 904.659,407.476 918,426.5C 924.366,434.536 932.533,439.703 942.5,442C 957.838,442.197 973.171,442.197 988.5,442C 999.632,445.132 1006.8,452.298 1010,463.5C 1015.59,484.732 1015.92,506.065 1011,527.5C 1009.09,539.074 1002.59,546.574 991.5,550C 977.857,551.088 964.19,551.755 950.5,552C 938.175,554.243 928.341,560.41 921,570.5C 905.471,597.33 901.804,625.663 910,655.5C 913.083,660.588 916.917,665.088 921.5,669C 933.5,675.667 945.5,682.333 957.5,689C 967.08,697.415 970.246,707.915 967,720.5C 960.31,743.718 948.143,763.552 930.5,780C 922.188,785.621 913.188,786.954 903.5,784C 893.006,778.587 882.673,772.921 872.5,767C 858.065,760.915 844.065,761.915 830.5,770C 813.084,782.584 799.417,798.417 789.5,817.5C 784.023,828.843 783.19,840.51 787,852.5C 794.366,865.187 801.699,877.853 809,890.5C 812.219,902.064 809.553,912.064 801,920.5C 788.125,932.363 773.625,941.863 757.5,949C 748.101,952.4 738.434,953.734 728.5,953C 721.67,951.185 716.17,947.351 712,941.5C 706.919,932.335 701.585,923.335 696,914.5C 681.884,896.788 663.717,890.955 641.5,897C 626.783,901.359 612.783,907.359 599.5,915C 588.178,922.642 581.344,933.142 579,946.5C 579.285,961.16 579.285,975.826 579,990.5C 575.24,1001.82 567.407,1008.66 555.5,1011C 530.247,1017.15 505.58,1015.48 481.5,1006C 474.504,1001.85 470.67,995.681 470,987.5C 469.838,973.802 469.171,960.135 468,946.5C 462.629,929.461 451.463,917.961 434.5,912C 416.244,905.939 397.577,903.939 378.5,906C 368.742,908.13 360.575,912.963 354,920.5C 346.333,933.833 338.667,947.167 331,960.5C 328.01,963.491 324.51,965.657 320.5,967C 312.022,968.011 303.689,967.345 295.5,965C 273.481,957.089 254.648,944.589 239,927.5C 233.865,918.881 233.199,909.881 237,900.5C 242.921,890.327 248.587,879.994 254,869.5C 259.411,855.528 258.078,842.194 250,829.5C 237.871,811.367 222.037,797.534 202.5,788C 191.623,783.785 180.623,783.451 169.5,787C 159.568,792.604 149.901,798.604 140.5,805C 126.177,813.535 113.177,811.868 101.5,800C 86.9004,783.645 75.7337,765.145 68,744.5C 63.5021,731.335 66.6688,720.502 77.5,712C 88.0003,705.918 98.3337,699.584 108.5,693C 119.618,683.828 125.285,671.994 125.5,657.5C 124.041,633.952 116.541,612.619 103,593.5C 96.6101,586.553 88.7768,582.053 79.5,580C 63.5,579.667 47.5,579.333 31.5,579C 19.977,574.458 13.1437,565.958 11,553.5C 6.00746,530.722 6.34079,508.056 12,485.5C 15.3863,476.381 21.8863,470.881 31.5,469C 45.5259,468.791 59.5259,468.124 73.5,467C 87.6093,463.701 97.776,455.534 104,442.5C 114.231,421.923 118.231,400.257 116,377.5C 114.466,367.929 109.966,360.096 102.5,354C 89.8333,346.667 77.1667,339.333 64.5,332C 55.7486,324.413 52.582,314.913 55,303.5C 60.5468,283.407 69.5468,265.074 82,248.5C 85.8666,244.298 90.0332,240.465 94.5,237C 101.545,233.296 108.878,232.629 116.5,235C 128.531,241.348 140.531,247.682 152.5,254C 163.759,257.701 174.759,257.034 185.5,252C 206.435,239.732 222.602,222.899 234,201.5C 238.529,191.359 239.196,181.026 236,170.5C 228.667,157.833 221.333,145.167 214,132.5C 210.955,122.455 212.288,113.121 218,104.5C 236.993,84.0864 260.159,71.0864 287.5,65.5C 296.439,66.222 303.606,70.222 309,77.5C 314,86.1667 319,94.8333 324,103.5C 333.021,117.012 345.688,124.012 362,124.5C 384.531,123.211 405.364,116.711 424.5,105C 434.303,97.9014 440.47,88.4014 443,76.5C 442.917,61.5019 442.917,46.5019 443,31.5C 445.3,22.5308 450.8,16.3641 459.5,13C 466.509,10.666 473.509,8.83264 480.5,7.5 Z M 493.5,169.5 C 610.334,167.511 705.5,211.511 779,301.5C 840.462,384.783 861.129,477.45 841,579.5C 815.128,685.02 753.961,762.52 657.5,812C 573.167,851.032 486.833,856.032 398.5,827C 298.552,790.052 229.385,721.885 191,622.5C 152.039,505.537 169.372,397.87 243,299.5C 307.66,220.416 391.16,177.083 493.5,169.5 Z"/></g>
</svg>
