<?xml version="1.0" encoding="UTF-8" standalone="no" ?>
<!DOCTYPE svg PUBLIC "-//W3C//DTD SVG 1.1//EN" "http://www.w3.org/Graphics/SVG/1.1/DTD/svg11.dtd">
<svg xmlns="http://www.w3.org/2000/svg" xmlns:xlink="http://www.w3.org/1999/xlink" version="1.1" width="24" height="24" viewBox="0 0 24 24" xml:space="preserve">
<desc>Created with Fabric.js 4.6.0</desc>
<defs>
</defs>
<g transform="matrix(1 0 0 1 5.5 7.24)" id="qPmD-EoB9lFt0cVPQQbHg"  >
<path style="stroke: rgb(0,0,0); stroke-width: 0; stroke-dasharray: none; stroke-linecap: butt; stroke-dashoffset: 0; stroke-linejoin: miter; stroke-miterlimit: 4; fill: rgb(255,255,255); fill-opacity: 0; fill-rule: nonzero; opacity: 1;" vector-effect="non-scaling-stroke"  transform=" translate(0, 0)" d="M -4.5 -1.24026 C -4.47403 0.7857100000000001 -4.5 0.7597400000000001 -4.5 0.7597400000000001 L 4.5 1.2402600000000001" stroke-linecap="round" />
</g>
<g transform="matrix(0.99 0.12 -0.12 0.99 1.89 4.12)" id="xR1HIMPIOgthAkSrfxlcv"  >
<path style="stroke: rgb(0,0,0); stroke-width: 0; stroke-dasharray: none; stroke-linecap: butt; stroke-dashoffset: 0; stroke-linejoin: miter; stroke-miterlimit: 4; fill: rgb(255,255,255); fill-opacity: 0; fill-rule: nonzero; opacity: 1;" vector-effect="non-scaling-stroke"  transform=" translate(0, 0)" d="M 0 0 z" stroke-linecap="round" />
</g>
<g transform="matrix(1 0.09 -0.09 1 1.89 4.12)" id="Dx13ucftDYWy5isMwhR7f"  >
<path style="stroke: rgb(0,0,0); stroke-width: 1; stroke-dasharray: none; stroke-linecap: butt; stroke-dashoffset: 0; stroke-linejoin: miter; stroke-miterlimit: 4; fill: rgb(255,255,255); fill-opacity: 0; fill-rule: nonzero; opacity: 1;" vector-effect="non-scaling-stroke"  transform=" translate(0, 0)" d="M 0 0" stroke-linecap="round" />
</g>
<g transform="matrix(1 0.09 -0.09 1 1.89 4.12)" id="QQB1gaW8IeN4YoYPJ9KfG"  >
<path style="stroke: rgb(0,0,0); stroke-width: 1; stroke-dasharray: none; stroke-linecap: butt; stroke-dashoffset: 0; stroke-linejoin: miter; stroke-miterlimit: 4; fill: rgb(255,255,255); fill-opacity: 0; fill-rule: nonzero; opacity: 1;" vector-effect="non-scaling-stroke"  transform=" translate(0, 0)" d="M 0 0" stroke-linecap="round" />
</g>
<g transform="matrix(1 0 0 1 12 8)" id="eC70TjzPEg-zIkL1Zj96s"  >
<path style="stroke: rgb(0,0,0); stroke-width: 0; stroke-dasharray: none; stroke-linecap: butt; stroke-dashoffset: 0; stroke-linejoin: miter; stroke-miterlimit: 4; fill: rgb(255,139,145); fill-rule: nonzero; opacity: 1;" vector-effect="non-scaling-stroke"  transform=" translate(0, 0)" d="M -12 -2 C -12 -2 -12 0.012989999999999835 -12 1 C -12 1.9870100000000002 -11 2 -11 2 L 11 2 C 11 2 12 2.01299 12 1 C 12 -0.012990000000000057 12 -2 12 -2 z" stroke-linecap="round" />
</g>
<g transform="matrix(15.34 1.34 -0.11 1.28 11.93 4)" id="Bam5-9bLHoAprL7-nmlqr"  >
<path style="stroke: rgb(65,125,222); stroke-width: 0; stroke-dasharray: none; stroke-linecap: butt; stroke-dashoffset: 0; stroke-linejoin: miter; stroke-miterlimit: 4; fill: rgb(255,139,145); fill-rule: nonzero; opacity: 1;" vector-effect="non-scaling-stroke"  transform=" translate(0, 0)" d="M -0.77922 -0.77922 L 0.77922 -0.77922 L 0.77922 0.77922 L -0.77922 0.77922 z" stroke-linecap="round" />
</g>
<g transform="matrix(1 0.09 -0.09 1 12.05 2.71)" id="o2UR7uIf45at52WaWkANp"  >
<path style="stroke: rgb(0,0,0); stroke-width: 0; stroke-dasharray: none; stroke-linecap: butt; stroke-dashoffset: 0; stroke-linejoin: miter; stroke-miterlimit: 4; fill: rgb(255,139,145); fill-rule: nonzero; opacity: 1;" vector-effect="non-scaling-stroke"  transform=" translate(0, 0)" d="M -5.99962 1.28773 L -5.99962 -0.71227 C -5.99962 -0.71227 -6.06456 -1.79019 -4.99962 -1.71227 C -3.93468 -1.63435 5.00038 -1.71227 5.00038 -1.71227 C 5.00038 -1.71227 6.00038 -1.77721 6.00038 -0.71227 C 6.00038 0.35267000000000004 6.00038 1.28773 6.00038 1.28773 L 5.00038 1.28773 L 5.00038 0.1578600000000001 C 5.00038 0.1578600000000001 5.06532 -0.7642199999999999 4.00038 -0.7122699999999998 C 2.93544 -0.6603199999999998 -3.99962 -0.7122699999999998 -3.99962 -0.7122699999999998 C -3.99962 -0.7122699999999998 -5.02559 -0.7512299999999998 -4.99962 0.28773000000000015 C -4.97365 1.3266900000000001 -4.99962 1.7163 -4.99962 1.7163 z" stroke-linecap="round" />
</g>
<g transform="matrix(1 0 0 1 3 10)" id="LKMXLdVneIvi61SafEHuY"  >
<path style="stroke: rgb(0,0,0); stroke-width: 1; stroke-dasharray: none; stroke-linecap: butt; stroke-dashoffset: 0; stroke-linejoin: miter; stroke-miterlimit: 4; fill: rgb(255,255,255); fill-opacity: 0; fill-rule: nonzero; opacity: 1;" vector-effect="non-scaling-stroke"  transform=" translate(0, 0)" d="M 0 0" stroke-linecap="round" />
</g>
<g transform="matrix(1 0 0 1 12 17)" id="taNcXXBZoaSxmBbaN7t96"  >
<path style="stroke: rgb(247,47,58); stroke-width: 0; stroke-dasharray: none; stroke-linecap: butt; stroke-dashoffset: 0; stroke-linejoin: miter; stroke-miterlimit: 4; fill: rgb(255,139,145); fill-rule: nonzero; opacity: 1;" vector-effect="non-scaling-stroke"  transform=" translate(0, 0)" d="M -11 -7 L -10 6.896100000000001 L 10 7.000000000000001 L 11 -6.999999999999999 z" stroke-linecap="round" />
</g>
<g transform="matrix(1 0 0 1 11.81 13.6)" id="N8PfTqzskRSDckiKFvPi8"  >
<path style="stroke: rgb(79,14,18); stroke-width: 0; stroke-dasharray: none; stroke-linecap: butt; stroke-dashoffset: 0; stroke-linejoin: miter; stroke-miterlimit: 4; fill: rgb(247,47,58); fill-rule: nonzero; opacity: 1;" vector-effect="non-scaling-stroke"  transform=" translate(-1.3, -1.3)" d="M 0 0 L 2.5974 0 L 2.5974 2.5974 L 0 2.5974 z" stroke-linecap="round" />
</g>
<g transform="matrix(1 0 0 1 7 16)" id="N2lteaKbhP_nXmbajzutQ"  >
<path style="stroke: rgb(247,47,58); stroke-width: 1; stroke-dasharray: none; stroke-linecap: butt; stroke-dashoffset: 0; stroke-linejoin: miter; stroke-miterlimit: 4; fill: rgb(255,255,255); fill-opacity: 0; fill-rule: nonzero; opacity: 1;" vector-effect="non-scaling-stroke"  transform=" translate(0, 0)" d="M 0 0" stroke-linecap="round" />
</g>
<g transform="matrix(1 0 0 1 7 15)" id="zFrv5pKhGcXIUt8402bBE"  >
<path style="stroke: rgb(247,47,58); stroke-width: 1; stroke-dasharray: none; stroke-linecap: butt; stroke-dashoffset: 0; stroke-linejoin: miter; stroke-miterlimit: 4; fill: rgb(255,255,255); fill-opacity: 0; fill-rule: nonzero; opacity: 1;" vector-effect="non-scaling-stroke"  transform=" translate(0, 0)" d="M 0 0" stroke-linecap="round" />
</g>
<g transform="matrix(1 0 0 1 12.24 15.08)" id="b-WJVWvQC1HKOjop0ZICC"  >
<path style="stroke: rgb(79,14,18); stroke-opacity: 0.5; stroke-width: 3; stroke-dasharray: none; stroke-linecap: butt; stroke-dashoffset: 0; stroke-linejoin: miter; stroke-miterlimit: 4; fill: none; fill-rule: nonzero; opacity: 1;" vector-effect="non-scaling-stroke"  transform=" translate(-6, -6)" d="M 6.00001 0 C 9.312009999999999 0 12.00002 2.688 12.00002 6.00001 C 12.00002 9.312009999999999 9.312019999999999 12.00002 6.00001 12.00002 C 2.68801 12.00002 0 9.312019999999999 0 6.00001 C 0 2.68801 2.688 0 6.00001 0 z" stroke-linecap="round" />
</g>
<g transform="matrix(1.54 0 0 6.76 12 14.91)" id="obxmHoXHLfx_TdjGG7hTa"  >
<path style="stroke: rgb(79,14,18); stroke-width: 0; stroke-dasharray: none; stroke-linecap: butt; stroke-dashoffset: 0; stroke-linejoin: miter; stroke-miterlimit: 4; fill: rgb(255,139,145); fill-rule: nonzero; opacity: 1;" vector-effect="non-scaling-stroke"  transform=" translate(0, 0)" d="M -1.2987 -1.2987 L 1.2987 -1.2987 L 1.2987 1.2987 L -1.2987 1.2987 z" stroke-linecap="round" />
</g>
<g transform="matrix(0 1.54 -7.7 0 12.05 15)" id="ecG5agitgGu5yz9xAGGhr"  >
<path style="stroke: rgb(79,14,18); stroke-width: 0; stroke-dasharray: none; stroke-linecap: butt; stroke-dashoffset: 0; stroke-linejoin: miter; stroke-miterlimit: 4; fill: rgb(255,139,145); fill-rule: nonzero; opacity: 1;" vector-effect="non-scaling-stroke"  transform=" translate(0, 0)" d="M -1.2987 -1.2987 L 1.2987 -1.2987 L 1.2987 1.2987 L -1.2987 1.2987 z" stroke-linecap="round" />
</g>
<g transform="matrix(-0.71 0.71 -0.71 -0.71 18 17)" id="TObaedUh4z_Jn7Wl5DKt7"  >
<path style="stroke: none; stroke-width: 1; stroke-dasharray: none; stroke-linecap: butt; stroke-dashoffset: 0; stroke-linejoin: miter; stroke-miterlimit: 4; fill: rgb(79,14,18); fill-opacity: 0.5; fill-rule: nonzero; opacity: 1;" vector-effect="non-scaling-stroke"  transform=" translate(-2, -2)" d="M 0 0 L 4 4 L 0 4 z" stroke-linecap="round" />
</g>
<g transform="matrix(-0.71 -0.71 0.71 -0.71 10 20.65)" id="bxMVkK5qzjas7gU6si7w-"  >
<path style="stroke: none; stroke-width: 1; stroke-dasharray: none; stroke-linecap: butt; stroke-dashoffset: 0; stroke-linejoin: miter; stroke-miterlimit: 4; fill: rgb(79,14,18); fill-opacity: 0.5; fill-rule: nonzero; opacity: 1;" vector-effect="non-scaling-stroke"  transform=" translate(-2, -2)" d="M 0 0 L 4 4 L 0 4 z" stroke-linecap="round" />
</g>
<g transform="matrix(0.71 0.71 -0.71 0.71 14 9.46)" id="vZ64sfWwqSiG-sYTXRKnk"  >
<path style="stroke: none; stroke-width: 1; stroke-dasharray: none; stroke-linecap: butt; stroke-dashoffset: 0; stroke-linejoin: miter; stroke-miterlimit: 4; fill: rgb(79,14,18); fill-opacity: 0.5; fill-rule: nonzero; opacity: 1;" vector-effect="non-scaling-stroke"  transform=" translate(-2, -2)" d="M 0 0 L 4 4 L 0 4 z" stroke-linecap="round" />
</g>
<g transform="matrix(0.69 -0.72 0.72 0.69 6.47 13)" id="M92nuphWaarS7Y_ej0u2j"  >
<path style="stroke: none; stroke-width: 1; stroke-dasharray: none; stroke-linecap: butt; stroke-dashoffset: 0; stroke-linejoin: miter; stroke-miterlimit: 4; fill: rgb(79,14,18); fill-opacity: 0.5; fill-rule: nonzero; opacity: 1;" vector-effect="non-scaling-stroke"  transform=" translate(-2, -2)" d="M 0 0 L 4 4 L 0 4 z" stroke-linecap="round" />
</g>
</svg>